<svg width="21" height="20" viewBox="0 0 21 20" fill="none" xmlns="http://www.w3.org/2000/svg">
<path d="M14.1402 7.20216C14.5789 7.97202 14.8095 8.84376 14.8089 9.73078C14.8138 10.9176 14.4109 12.0698 13.6681 12.993C12.9254 13.9162 11.8883 14.5539 10.7317 14.7986C9.57516 15.0432 8.36996 14.8799 7.3194 14.3361C6.26884 13.7923 5.43722 12.9013 4.96481 11.8134C4.49241 10.7255 4.40812 9.50728 4.72618 8.36425C5.04424 7.22121 5.74518 6.22331 6.71076 5.53886C7.67634 4.8544 8.84747 4.52529 10.0266 4.60704C11.2057 4.68879 12.3207 5.17639 13.1834 5.9876L15.848 2.20798C13.9059 0.612672 11.4239 -0.165251 8.92292 0.0374732C6.42193 0.240198 4.09635 1.40781 2.43427 3.29525C0.772194 5.1827 -0.0971676 7.64324 0.00863951 10.1605C0.114447 12.6777 1.18719 15.056 3.00175 16.7961C4.81631 18.5362 7.23159 19.5029 9.74071 19.4933C12.2498 19.4837 14.6577 18.4985 16.459 16.7445C18.2603 14.9906 19.3149 12.6042 19.4016 10.0862C19.4883 7.56826 18.6003 5.11445 16.9239 3.23978L14.1402 7.20216Z" fill="white"/>
<path d="M7.18032 9.43652H5.38553L4.59814 10.5528C4.69555 11.1552 4.90022 11.7351 5.20236 12.2647L7.18032 9.43652Z" fill="url(#paint0_linear_0_123)"/>
<path d="M12.7378 6.69141H10.943L6.15826 13.4774C6.52054 13.8171 6.92965 14.1027 7.37302 14.3253L12.7378 6.69141Z" fill="url(#paint1_linear_0_123)"/>
<path d="M19.1844 0L8.80566 14.7946C9.41058 14.899 10.0293 14.8931 10.6321 14.7772L20.9999 0H19.1844Z" fill="url(#paint2_linear_0_123)"/>
<defs>
<linearGradient id="paint0_linear_0_123" x1="4.25509" y1="12.9036" x2="5.86054" y2="10.8581" gradientUnits="userSpaceOnUse">
<stop stop-color="#F75F4E"/>
<stop offset="0.431" stop-color="#FF9180"/>
<stop offset="0.821" stop-color="#FFF5E4"/>
<stop offset="1" stop-color="white"/>
</linearGradient>
<linearGradient id="paint1_linear_0_123" x1="6.33448" y1="15.0924" x2="8.67107" y2="12.589" gradientUnits="userSpaceOnUse">
<stop stop-color="#F75F4E"/>
<stop offset="0.431" stop-color="#FF9180"/>
<stop offset="0.821" stop-color="#FFF5E4"/>
<stop offset="1" stop-color="white"/>
</linearGradient>
<linearGradient id="paint2_linear_0_123" x1="8.19498" y1="17.2815" x2="12.8756" y2="12.9459" gradientUnits="userSpaceOnUse">
<stop stop-color="#F75F4E"/>
<stop offset="0.431" stop-color="#FF9180"/>
<stop offset="0.821" stop-color="#FFF5E4"/>
<stop offset="1" stop-color="white"/>
</linearGradient>
</defs>
</svg>
