<svg width="159" height="190" viewBox="0 0 159 190" fill="none" xmlns="http://www.w3.org/2000/svg">
<mask id="mask0_0_44" style="mask-type:alpha" maskUnits="userSpaceOnUse" x="0" y="0" width="160" height="190">
<path d="M0.203125 190L159.203 0V190H0.203125Z" fill="#C4C4C4"/>
</mask>
<g mask="url(#mask0_0_44)">
<path d="M517.003 19.2072L56.1472 568.089" stroke="#9498AA" stroke-width="5" stroke-miterlimit="10"/>
<path d="M509.529 12.9391L48.6726 561.821" stroke="#9498AA" stroke-width="5" stroke-miterlimit="10"/>
<path d="M502.053 6.67035L41.1971 555.552" stroke="#9498AA" stroke-width="5" stroke-miterlimit="10"/>
<path d="M494.579 0.402271L33.7224 549.284" stroke="#9498AA" stroke-width="5" stroke-miterlimit="10"/>
<path d="M487.103 -5.86641L26.2469 543.015" stroke="#9498AA" stroke-width="5" stroke-miterlimit="10"/>
<path d="M479.629 -12.1346L18.7722 536.747" stroke="#9498AA" stroke-width="5" stroke-miterlimit="10"/>
<path d="M472.153 -18.4033L11.2967 530.479" stroke="#9498AA" stroke-width="5" stroke-miterlimit="10"/>
<path d="M464.678 -24.6713L3.82213 524.211" stroke="#9498AA" stroke-width="5" stroke-miterlimit="10"/>
<path d="M457.203 -30.9401L-3.65358 517.942" stroke="#9498AA" stroke-width="5" stroke-miterlimit="10"/>
<path d="M442.253 -43.477L-18.6038 505.405" stroke="#9498AA" stroke-width="5" stroke-miterlimit="10"/>
<path d="M427.302 -56.013L-33.5543 492.869" stroke="#9498AA" stroke-width="5" stroke-miterlimit="10"/>
<path d="M412.352 -68.5499L-48.5042 480.332" stroke="#9498AA" stroke-width="5" stroke-miterlimit="10"/>
<path d="M397.396 -81.0919L-63.4607 467.79" stroke="#9498AA" stroke-width="5" stroke-miterlimit="10"/>
<path d="M382.445 -93.6286L-78.4109 455.253" stroke="#9498AA" stroke-width="5" stroke-miterlimit="10"/>
<path d="M367.495 -106.165L-93.361 442.716" stroke="#9498AA" stroke-width="5" stroke-miterlimit="10"/>
<path d="M352.545 -118.702L-108.311 430.18" stroke="#9498AA" stroke-width="5" stroke-miterlimit="10"/>
<path d="M449.728 -37.2082L-11.1281 511.674" stroke="#9498AA" stroke-width="5" stroke-miterlimit="10"/>
<path d="M434.778 -49.7451L-26.0784 499.137" stroke="#9498AA" stroke-width="5" stroke-miterlimit="10"/>
<path d="M419.827 -62.2811L-41.0289 486.601" stroke="#9498AA" stroke-width="5" stroke-miterlimit="10"/>
<path d="M404.871 -74.8231L-55.9852 474.059" stroke="#9498AA" stroke-width="5" stroke-miterlimit="10"/>
<path d="M389.923 -87.3622L120.339 233.712L-70.9354 461.522" fill="white"/>
<path d="M389.923 -87.3622L120.339 233.712L-70.9354 461.522" stroke="#9498AA" stroke-width="5"/>
<path d="M374.971 -99.8968L-85.8855 448.985" stroke="#9498AA" stroke-width="5" stroke-miterlimit="10"/>
<path d="M360.021 -112.434L-100.836 436.448" stroke="#9498AA" stroke-width="5" stroke-miterlimit="10"/>
<path d="M345.07 -124.97L-115.786 423.911" stroke="#9498AA" stroke-width="5" stroke-miterlimit="10"/>
<path d="M337.595 -131.239L-123.261 417.643" stroke="#9498AA" stroke-width="5" stroke-miterlimit="10"/>
<path d="M330.12 -137.507L-130.736 411.375" stroke="#9498AA" stroke-width="5" stroke-miterlimit="10"/>
<path d="M322.645 -143.776L-138.212 405.106" stroke="#9498AA" stroke-width="5" stroke-miterlimit="10"/>
<path d="M315.17 -150.043L-145.687 398.839" stroke="#9498AA" stroke-width="5" stroke-miterlimit="10"/>
<path d="M307.694 -156.312L-153.162 392.57" stroke="#9498AA" stroke-width="5" stroke-miterlimit="10"/>
<path d="M300.219 -162.58L-160.637 386.302" stroke="#9498AA" stroke-width="5" stroke-miterlimit="10"/>
<path d="M292.744 -168.849L-168.112 380.033" stroke="#9498AA" stroke-width="5" stroke-miterlimit="10"/>
<path d="M285.269 -175.117L-175.587 373.765" stroke="#9498AA" stroke-width="5" stroke-miterlimit="10"/>
<path d="M277.794 -181.386L-183.062 367.496" stroke="#9498AA" stroke-width="5" stroke-miterlimit="10"/>
<path d="M270.319 -187.654L-190.537 361.228" stroke="#9498AA" stroke-width="5" stroke-miterlimit="10"/>
<path d="M262.844 -193.923L-198.012 354.959" stroke="#9498AA" stroke-width="5" stroke-miterlimit="10"/>
<path d="M255.369 -200.191L-205.487 348.691" stroke="#9498AA" stroke-width="5" stroke-miterlimit="10"/>
<path d="M247.893 -206.459L-212.963 342.423" stroke="#9498AA" stroke-width="5" stroke-miterlimit="10"/>
<path d="M240.419 -212.727L-220.438 336.154" stroke="#9498AA" stroke-width="5" stroke-miterlimit="10"/>
<path d="M232.943 -218.996L-227.913 329.886" stroke="#9498AA" stroke-width="5" stroke-miterlimit="10"/>
<path d="M225.468 -225.264L-235.388 323.618" stroke="#9498AA" stroke-width="5" stroke-miterlimit="10"/>
<path d="M217.993 -231.533L-242.863 317.349" stroke="#9498AA" stroke-width="5" stroke-miterlimit="10"/>
<path d="M203.042 -244.069L-257.814 304.813" stroke="#9498AA" stroke-width="5" stroke-miterlimit="10"/>
<path d="M188.092 -256.606L-272.764 292.276" stroke="#9498AA" stroke-width="5" stroke-miterlimit="10"/>
<path d="M173.136 -269.148L-287.72 279.734" stroke="#9498AA" stroke-width="5" stroke-miterlimit="10"/>
<path d="M158.186 -281.685L-302.671 267.197" stroke="#9498AA" stroke-width="5" stroke-miterlimit="10"/>
<path d="M143.235 -294.222L-317.621 254.66" stroke="#9498AA" stroke-width="5" stroke-miterlimit="10"/>
<path d="M128.285 -306.758L-332.571 242.124" stroke="#9498AA" stroke-width="5" stroke-miterlimit="10"/>
<path d="M113.335 -319.295L-347.521 229.587" stroke="#9498AA" stroke-width="5" stroke-miterlimit="10"/>
<path d="M210.518 -237.801L-250.338 311.081" stroke="#9498AA" stroke-width="5" stroke-miterlimit="10"/>
<path d="M195.568 -250.337L-265.289 298.545" stroke="#9498AA" stroke-width="5" stroke-miterlimit="10"/>
<path d="M180.611 -262.879L-280.245 286.003" stroke="#9498AA" stroke-width="5" stroke-miterlimit="10"/>
<path d="M165.661 -275.416L-295.195 273.466" stroke="#9498AA" stroke-width="5" stroke-miterlimit="10"/>
<path d="M150.711 -287.953L-310.145 260.929" stroke="#9498AA" stroke-width="5" stroke-miterlimit="10"/>
<path d="M135.761 -300.49L-325.095 248.392" stroke="#9498AA" stroke-width="5" stroke-miterlimit="10"/>
<path d="M120.811 -313.027L-340.046 235.855" stroke="#9498AA" stroke-width="5" stroke-miterlimit="10"/>
<path d="M105.86 -325.563L-354.996 223.319" stroke="#9498AA" stroke-width="5" stroke-miterlimit="10"/>
<path d="M98.3844 -331.831L-362.472 217.051" stroke="#9498AA" stroke-width="5" stroke-miterlimit="10"/>
<path d="M90.9099 -338.099L-369.946 210.782" stroke="#9498AA" stroke-width="5" stroke-miterlimit="10"/>
<path d="M83.4342 -344.368L-377.422 204.514" stroke="#9498AA" stroke-width="5" stroke-miterlimit="10"/>
<path d="M75.9597 -350.636L-384.897 198.246" stroke="#9498AA" stroke-width="5" stroke-miterlimit="10"/>
<path d="M68.484 -356.905L-392.372 191.977" stroke="#9498AA" stroke-width="5" stroke-miterlimit="10"/>
<path d="M61.0093 -363.173L-399.847 185.709" stroke="#9498AA" stroke-width="5" stroke-miterlimit="10"/>
<path d="M53.5344 -369.442L-407.322 179.44" stroke="#9498AA" stroke-width="5" stroke-miterlimit="10"/>
<path d="M46.0593 -375.71L-414.797 173.172" stroke="#9498AA" stroke-width="5" stroke-miterlimit="10"/>
</g>
</svg>
