<svg width="24" height="24" viewBox="0 0 24 24" fill="none" xmlns="http://www.w3.org/2000/svg">
<path d="M18.9236 14.4748C18.6286 14.1788 18.239 13.9955 17.8226 13.9566C17.4062 13.9176 16.9893 14.0257 16.6444 14.2619L13.8836 16.1512C13.7923 16.2164 13.6806 16.2467 13.5687 16.2366C13.4569 16.2265 13.3524 16.1768 13.2742 16.0963L12.3615 15.1839C12.237 15.0598 12.0682 14.9902 11.8923 14.9902C11.7164 14.9902 11.5477 15.0598 11.4232 15.1839C11.3001 15.3095 11.2313 15.4782 11.2313 15.6539C11.2313 15.8296 11.3001 15.9983 11.4232 16.1239L12.3373 17.0367C12.6326 17.3322 13.0222 17.5152 13.4384 17.5541C13.8547 17.593 14.2714 17.4853 14.6165 17.2497L17.3803 15.3604C17.4715 15.2946 17.5833 15.2639 17.6953 15.274C17.8073 15.284 17.9119 15.3342 17.9897 15.4152L22.3163 19.7448C22.3597 19.7878 22.3942 19.839 22.4178 19.8954C22.4413 19.9518 22.4534 20.0123 22.4534 20.0734C22.4534 20.1345 22.4413 20.195 22.4178 20.2514C22.3942 20.3078 22.3597 20.359 22.3163 20.402C21.8956 20.824 21.4225 21.1905 20.9084 21.4923L17.5018 18.0878C17.3761 17.9684 17.2085 17.9028 17.035 17.9052C16.8615 17.9077 16.6958 17.9779 16.5735 18.1008C16.4511 18.2237 16.3819 18.3896 16.3806 18.5629C16.3793 18.7362 16.4461 18.9031 16.5666 19.0279L19.6136 22.0705C18.371 22.4929 17.0349 22.5595 15.7565 22.2627C14.478 21.9659 13.3084 21.3175 12.3799 20.3911L3.60025 11.6118C2.28303 10.2946 1.54318 8.50926 1.54318 6.64781C1.54318 4.78636 2.28303 3.00101 3.60025 1.68386C3.68919 1.59869 3.80765 1.55114 3.93088 1.55114C4.05411 1.55114 4.17257 1.59869 4.26151 1.68386L8.58839 6.01373C8.66952 6.09148 8.71976 6.1959 8.72986 6.30773C8.73995 6.41957 8.70922 6.53127 8.64333 6.62226L7.57978 8.17697L4.57236 5.1541C4.44682 5.03326 4.27877 4.96652 4.10442 4.96826C3.93007 4.96999 3.76338 5.04007 3.64029 5.16339C3.5172 5.28671 3.44757 5.45338 3.44639 5.62749C3.44522 5.80159 3.51261 5.96919 3.63403 6.09414L6.81513 9.27681L6.75098 9.36812C6.51547 9.71414 6.40794 10.1312 6.44686 10.5478C6.48577 10.9644 6.6687 11.3544 6.96424 11.651L8.33829 13.023C8.39931 13.087 8.47253 13.138 8.55364 13.1733C8.63474 13.2085 8.72209 13.2271 8.81053 13.2281C8.89897 13.2291 8.98671 13.2124 9.06858 13.179C9.15045 13.1456 9.2248 13.0962 9.28724 13.0336C9.34967 12.9711 9.39894 12.8966 9.43213 12.8148C9.46532 12.7329 9.48176 12.6453 9.48048 12.5569C9.47921 12.4686 9.46024 12.3815 9.4247 12.3006C9.38915 12.2197 9.33776 12.1468 9.27354 12.0861L7.9029 10.7078C7.82597 10.6315 7.77833 10.5306 7.76829 10.4227C7.75825 10.3149 7.78645 10.2069 7.84797 10.1177L9.75226 7.35515C9.98873 7.00968 10.0971 6.59266 10.0588 6.17595C10.0204 5.75924 9.83767 5.36895 9.54207 5.07232L5.20018 0.745174C5.03352 0.578742 4.83566 0.44672 4.6179 0.356646C4.40015 0.266573 4.16675 0.220215 3.93105 0.220215C3.69535 0.220215 3.46196 0.266573 3.2442 0.356646C3.02644 0.44672 2.82858 0.578742 2.66192 0.745174C1.09917 2.31259 0.221802 4.43432 0.221802 6.64611C0.221802 8.8579 1.09917 10.9796 2.66192 12.547L11.4494 21.3376C13.015 22.9002 15.138 23.778 17.3515 23.778C19.5651 23.778 21.688 22.9002 23.2536 21.3376C23.5896 21.0007 23.7783 20.5445 23.7783 20.069C23.7783 19.5934 23.5896 19.1373 23.2536 18.8003L18.9236 14.4748Z" fill="white"/>
</svg>
